<svg xmlns="http://www.w3.org/2000/svg" width="92" height="47" viewBox="0 0 92 47">
    <path fill="#FFF" fill-rule="evenodd" d="M0 20.296c0-.099.083-.165.165-.165h2.146c.809 0 1.717.132 2.327.528.81.511 1.123 1.353.974 2.293-.066.412-.346.709-.66.973-.099.066-.083.214.017.28.61.33 1.04 1.006 1.04 1.749 0 .99-.611 1.781-1.552 2.177-.627.264-1.502.33-2.245.33H.165A.165.165 0 0 1 0 28.296v-8zm1.931 3.15h.38c.875 0 1.42-.28 1.42-.857 0-.347-.116-.561-.298-.693-.28-.198-.759-.198-1.221-.198h-.28v1.749zm.892 1.518h-.727a.165.165 0 0 0-.165.165v1.732h.33c.446 0 .974 0 1.304-.165.248-.132.397-.347.397-.726 0-.627-.397-1.006-1.14-1.006zm4.523 3.315v-7.983c0-.099.082-.165.165-.165H12c.098 0 .164.083.164.165v1.254a.165.165 0 0 1-.165.165H9.442a.165.165 0 0 0-.165.165v1.32c0 .098.082.164.165.164h2.36c.1 0 .165.083.165.165v1.254a.165.165 0 0 1-.165.164h-2.36a.165.165 0 0 0-.165.165v1.55c0 .1.082.166.165.166H12c.1 0 .165.082.165.165v1.253a.165.165 0 0 1-.165.165H7.527c-.099.033-.181-.05-.181-.132m6.503-7.983c0-.099.083-.165.165-.165h2.542c1.37 0 3.12.693 3.12 2.524 0 1.154-.71 1.864-1.535 2.243-.1.05-.132.165-.066.247.66.924 1.618 2.244 2.195 3.035a.165.165 0 0 1-.132.264h-1.98c-.05 0-.116-.033-.133-.066l-2.146-3.167h-.082v3.068a.165.165 0 0 1-.165.165h-1.585a.165.165 0 0 1-.165-.165v-7.983h-.033zm1.931 3.315h.512c.776 0 1.337-.28 1.337-.907 0-.577-.445-.973-1.122-.973h-.561a.165.165 0 0 0-.166.165v1.715zm20.353-3.315v7.983c0 .1.083.165.165.165h4.49a.165.165 0 0 0 .165-.165v-1.253a.165.165 0 0 0-.165-.165H38.23a.165.165 0 0 1-.165-.165v-1.55c0-.1.082-.166.165-.166h2.36a.165.165 0 0 0 .165-.164v-1.254a.165.165 0 0 0-.165-.165h-2.36a.165.165 0 0 1-.165-.165v-1.32c0-.098.082-.164.165-.164h2.558a.165.165 0 0 0 .165-.165v-1.254a.165.165 0 0 0-.165-.165h-4.473c-.1-.033-.182.05-.182.132m-8.237-2.837c-3.78 0-6.734 2.903-6.817 6.664-.082 3.843 3.153 7.076 6.999 6.993 3.747-.082 6.652-3.051 6.652-6.828 0-3.827-3.004-6.829-6.834-6.829zm.017 11.497c-2.872 0-4.985-2.326-4.638-5.295.23-2.012 2.162-3.843 4.192-4.008 2.922-.231 5.1 1.798 5.1 4.651 0 2.689-1.963 4.652-4.654 4.652zM92 23.199C92 10.386 81.606 0 68.784 0 55.962 0 45.567 10.386 45.567 23.2c0 12.812 10.395 23.198 23.217 23.198S92 36.012 92 23.2zm-44.568 0c0-11.783 9.56-21.335 21.352-21.335S90.136 11.416 90.136 23.2c0 11.783-9.56 21.335-21.352 21.335-11.793 0-21.352-9.552-21.352-21.335zm7.932-4.882h1.106V28.41h4.308v1.072h-5.414V18.317zm6.85 2.903h1.056v8.263h-1.056V21.22zm2.608-2.903h1.205l3.714 8.626 3.764-8.626h1.221l-4.87 11.166h-.247l-4.787-11.166zm11.786 0h6.404v1.088H77.73v3.514h5.233v1.088H77.73v4.388h5.233v1.088h-6.355V18.317zm-13.866-.495c.248 0 .446.083.627.264.165.165.265.38.265.627a.8.8 0 0 1-.265.61.873.873 0 0 1-.627.264.802.802 0 0 1-.61-.264.863.863 0 0 1-.265-.61c0-.248.083-.446.264-.627a.802.802 0 0 1 .611-.264z"/>
</svg>
