<?xml version="1.0" standalone="no"?>
<!DOCTYPE svg PUBLIC "-//W3C//DTD SVG 20010904//EN"
 "http://www.w3.org/TR/2001/REC-SVG-20010904/DTD/svg10.dtd">
<svg version="1.0" xmlns="http://www.w3.org/2000/svg"
 width="25.000000pt" height="25.000000pt" viewBox="0 0 50.000000 50.000000"
 preserveAspectRatio="xMidYMid meet">
<metadata>
Created by potrace 1.16, written by Peter Selinger 2001-2019
</metadata>
<g transform="translate(0.000000,50.000000) scale(0.100000,-0.100000)"
fill="#FFFF" stroke="none">
<path d="M143 459 c-88 -44 -127 -117 -121 -224 4 -85 33 -138 100 -182 62
-41 194 -41 256 0 23 15 54 46 69 69 25 37 28 50 28 128 0 78 -3 91 -28 128
-45 69 -97 96 -186 100 -62 2 -84 -1 -118 -19z m224 -45 c124 -100 108 -275
-31 -346 -53 -27 -148 -22 -194 11 -103 73 -125 208 -47 298 50 59 87 74 167
71 57 -3 72 -8 105 -34z"/>
</g>
</svg>
