<svg xmlns="http://www.w3.org/2000/svg" width="32" height="32" viewBox="0 0 32 32">
    <path fill="#FFFF" fill-rule="evenodd" d="M32 16c0-8.837-7.163-16-16-16S0 7.163 0 16s7.163 16 16 16 16-7.163 16-16zM2 16C2 8.268 8.268 2 16 2s14 6.268 14 14-6.268 14-14 14S2 23.732 2 16zm20.68 4c0 .27-.098.505-.296.703a.961.961 0 0 1-.703.297h-3.5c0 .552-.195 1.023-.586 1.414-.39.39-.862.586-1.414.586a1.927 1.927 0 0 1-1.414-.586A1.927 1.927 0 0 1 14.18 21h-3.5a.961.961 0 0 1-.703-.297A.961.961 0 0 1 9.68 20c.26-.219.497-.448.71-.688.214-.24.436-.55.665-.933.229-.383.423-.796.582-1.238.159-.443.289-.98.39-1.61.102-.63.153-1.307.153-2.031 0-.792.305-1.527.914-2.207.61-.68 1.409-1.092 2.398-1.238a.778.778 0 0 1-.062-.305c0-.208.073-.385.219-.531A.723.723 0 0 1 16.18 9c.21 0 .386.073.532.219a.723.723 0 0 1 .219.531c0 .104-.021.206-.063.305.99.146 1.79.558 2.399 1.238.61.68.914 1.415.914 2.207 0 .724.05 1.401.152 2.031.102.63.232 1.167.39 1.61.16.442.354.855.583 1.238.229.383.45.694.664.933.213.24.45.47.71.688z"/>
</svg>
