<svg xmlns="http://www.w3.org/2000/svg" width="32" height="32" viewBox="0 0 32 32">
    <path fill="#FFFF" fill-rule="evenodd" d="M32 16c0-8.837-7.163-16-16-16S0 7.163 0 16s7.163 16 16 16 16-7.163 16-16zM2 16C2 8.268 8.268 2 16 2s14 6.268 14 14-6.268 14-14 14S2 23.732 2 16zm12.793 7h2.436v-2.94h-2.436V23zm5.733-11.214c0-2.415-1.365-3.402-4.284-3.402-1.596 0-3.549.693-3.549.693l.126 1.743s1.827-.399 3.129-.399c1.617 0 2.226.546 2.226 1.596 0 .945-.273 1.344-1.827 2.604-1.092.924-1.701 1.575-1.701 2.331 0 .987.504 1.638.504 1.638h1.848v-.693c0-.735.315-1.26 1.701-2.331 1.512-1.218 1.827-1.911 1.827-3.78z"/>
</svg>
